<svg width="1600" height="520" viewBox="0 0 1600 520" fill="none" xmlns="http://www.w3.org/2000/svg" role="img" aria-labelledby="title desc">
  <title id="title">文献管理工具横幅</title>
  <desc id="desc">一个仅展示标题、副标题和短标签的简洁蓝色项目横幅。</desc>
  <defs>
    <linearGradient id="bg" x1="140" y1="48" x2="1478" y2="488" gradientUnits="userSpaceOnUse">
      <stop offset="0" stop-color="#0B1F35"/>
      <stop offset="0.55" stop-color="#123E70"/>
      <stop offset="1" stop-color="#0C6BA6"/>
    </linearGradient>
    <linearGradient id="accent" x1="292" y1="118" x2="480" y2="306" gradientUnits="userSpaceOnUse">
      <stop offset="0" stop-color="#5DD4FF"/>
      <stop offset="1" stop-color="#1F8F6A"/>
    </linearGradient>
    <linearGradient id="warm" x1="1154" y1="282" x2="1368" y2="420" gradientUnits="userSpaceOnUse">
      <stop offset="0" stop-color="#FFD37A"/>
      <stop offset="1" stop-color="#FF9E57"/>
    </linearGradient>
  </defs>

  <rect x="24" y="24" width="1552" height="472" rx="34" fill="url(#bg)"/>
  <circle cx="1360" cy="122" r="108" fill="#7BD8FF" opacity="0.10"/>
  <circle cx="1236" cy="380" r="136" fill="#FFC978" opacity="0.08"/>
  <circle cx="232" cy="102" r="64" fill="#74D2FF" opacity="0.12"/>

  <g opacity="0.12" stroke="#DDEEFF">
    <path d="M113 130H1487"/>
    <path d="M113 196H1487"/>
    <path d="M113 262H1487"/>
    <path d="M113 328H1487"/>
    <path d="M113 394H1487"/>
  </g>

  <g opacity="0.12" stroke="#DDEEFF">
    <path d="M212 70V450"/>
    <path d="M322 70V450"/>
    <path d="M432 70V450"/>
    <path d="M542 70V450"/>
    <path d="M652 70V450"/>
  </g>

  <rect x="86" y="86" width="432" height="348" rx="30" fill="#0E2745" fill-opacity="0.82" stroke="#D4E7FF" stroke-opacity="0.14"/>

  <g transform="translate(88 74)">
    <circle cx="214" cy="186" r="72" fill="url(#accent)"/>
    <circle cx="214" cy="186" r="55" fill="#0D2846" fill-opacity="0.78"/>
    <path d="M178 160H214V214H178V160Z" fill="#F7FBFF"/>
    <path d="M214 152H250V206H214V152Z" fill="#D6F2FF"/>
    <path d="M193 172H235" stroke="#0D2846" stroke-width="10" stroke-linecap="round"/>
    <path d="M193 194H228" stroke="#0D2846" stroke-width="10" stroke-linecap="round"/>
    <path d="M244 214L271 241" stroke="#FFD37A" stroke-width="12" stroke-linecap="round"/>
    <circle cx="230" cy="200" r="32" stroke="#FFD37A" stroke-width="12"/>
  </g>

  <text x="1028" y="190" text-anchor="middle" fill="#F8FBFF" font-family="Microsoft YaHei, Segoe UI, Arial, sans-serif" font-size="72" font-weight="700">文献管理工具</text>
  <text x="1028" y="242" text-anchor="middle" fill="#CAE1F8" font-family="Microsoft YaHei, Segoe UI, Arial, sans-serif" font-size="30">中文学术场景的本地优先文献库</text>

  <rect x="812" y="294" width="132" height="48" rx="24" fill="#F2F7FF" fill-opacity="0.12" stroke="#F2F7FF" stroke-opacity="0.16"/>
  <text x="878" y="325" text-anchor="middle" fill="#F8FBFF" font-family="Microsoft YaHei, Segoe UI, Arial, sans-serif" font-size="20" font-weight="600">元数据</text>

  <rect x="962" y="294" width="132" height="48" rx="24" fill="#F2F7FF" fill-opacity="0.12" stroke="#F2F7FF" stroke-opacity="0.16"/>
  <text x="1028" y="325" text-anchor="middle" fill="#F8FBFF" font-family="Microsoft YaHei, Segoe UI, Arial, sans-serif" font-size="20" font-weight="600">附件</text>

  <rect x="1112" y="294" width="132" height="48" rx="24" fill="#F2F7FF" fill-opacity="0.12" stroke="#F2F7FF" stroke-opacity="0.16"/>
  <text x="1178" y="325" text-anchor="middle" fill="#F8FBFF" font-family="Microsoft YaHei, Segoe UI, Arial, sans-serif" font-size="20" font-weight="600">导出</text>

</svg>
